<svg xmlns="http://www.w3.org/2000/svg" viewBox="0 0 1100 620"><defs><linearGradient id="body" x1="0" x2="1"><stop stop-color="#e7fff8"/><stop offset=".24" stop-color="#6fffe0"/><stop offset=".56" stop-color="#42d8ff"/><stop offset=".82" stop-color="#a486ff"/><stop offset="1" stop-color="#fff0ff"/></linearGradient><radialGradient id="eye"><stop stop-color="#fff"/><stop offset=".42" stop-color="#45f5ff"/><stop offset="1" stop-color="#08121a"/></radialGradient><filter id="glow"><feDropShadow dx="0" dy="18" stdDeviation="20" flood-color="#00ffcc" flood-opacity=".35"/></filter></defs><g filter="url(#glow)"><path d="M142 338C224 178 462 129 678 211c90 34 151 96 198 171 61 10 117 39 164 88-84 26-162 17-232-31-113 95-307 115-485 55-120-41-184-94-181-156z" fill="url(#body)"/><path d="M385 440c162 48 318 32 437-61-92 39-216 48-360 20-89-18-129 19-77 41z" fill="#efffff" opacity=".4"/><path d="M817 366c65-64 151-96 258-89-73 70-139 118-225 134z" fill="#79ffe7" opacity=".62"/><path d="M288 178c-39-76-119-98-232-89 62 53 129 91 206 113zM280 252c-59-58-145-69-248-47 68 37 140 62 224 75zM282 322c-73-34-151-20-232 33 78 16 153 14 225-6z" fill="#76fce7" opacity=".82"/><path d="M338 150c-8-82-77-126-190-151 47 75 100 130 166 166zM342 200c-54-72-143-83-254-61 77 42 152 67 232 82z" fill="#bda0ff" opacity=".55"/><circle cx="266" cy="304" r="58" fill="url(#eye)"/><circle cx="252" cy="292" r="24" fill="#06111a"/><circle cx="242" cy="280" r="8" fill="#fff"/><path d="M384 250c88-38 208-32 344 25" stroke="#f3ffff" stroke-width="18" stroke-linecap="round" opacity=".45"/><path d="M456 522c-22 38-57 64-108 78 17-52 42-89 83-112zM563 536c-8 37-31 66-70 88 0-49 14-84 48-112z" fill="#c9fff5" opacity=".75"/><path d="M92 487c117-69 226-74 326-22-125-8-223 13-315 61z" stroke="#00ff9c" stroke-width="18" stroke-linecap="round" opacity=".5"/></g></svg>
