<svg xmlns="http://www.w3.org/2000/svg" viewBox="0 0 900 480"><defs><linearGradient id="g" x1="0" x2="1"><stop stop-color="#fff4b8"/><stop offset=".25" stop-color="#ffbd33"/><stop offset=".58" stop-color="#ff6a00"/><stop offset="1" stop-color="#ffe8a3"/></linearGradient><filter id="s"><feDropShadow dx="0" dy="16" stdDeviation="18" flood-color="#ff9d00" flood-opacity=".46"/></filter></defs><g filter="url(#s)"><path fill="url(#g)" d="M145 234C240 92 495 88 642 210c80-86 161-119 227-101-35 58-71 93-122 119 53 23 98 63 127 124-80 12-155-18-230-82-157 123-408 100-499-36z"/><path fill="#fff5cf" opacity=".58" d="M262 160c104-38 246-34 356 45-105-24-235-21-352 12-58 16-72-32-4-57z"/><path fill="#fff0a2" opacity=".5" d="M320 112c38-85 128-108 254-96-61 49-127 88-198 122zM334 328c55 80 143 91 263 70-83-25-149-58-204-98z"/><circle cx="213" cy="218" r="45" fill="#fff1a8"/><circle cx="203" cy="209" r="18" fill="#1b0b00"/><circle cx="196" cy="200" r="6" fill="#fff"/><g opacity=".32" stroke="#fff8d8" stroke-width="7" stroke-linecap="round"><path d="M312 154c60 55 61 108 2 160"/><path d="M376 145c55 59 57 116 1 176"/><path d="M444 145c50 56 52 112 2 168"/><path d="M510 157c38 43 40 91 2 135"/></g></g></svg>
