<svg xmlns="http://www.w3.org/2000/svg" viewBox="0 0 900 420"><defs><linearGradient id="g" x1="0" x2="1"><stop stop-color="#dff8ff"/><stop offset=".35" stop-color="#46e7ff"/><stop offset=".72" stop-color="#5b74ff"/><stop offset="1" stop-color="#c78cff"/></linearGradient><radialGradient id="e" cx="45%" cy="40%" r="60%"><stop stop-color="#fff"/><stop offset=".35" stop-color="#34f4ff"/><stop offset="1" stop-color="#122238"/></radialGradient><filter id="s"><feDropShadow dx="0" dy="14" stdDeviation="18" flood-color="#00eaff" flood-opacity=".42"/></filter></defs><g filter="url(#s)"><path fill="url(#g)" d="M130 208C234 75 515 54 680 185c62-42 122-70 180-62-24 54-66 85-118 98 47 24 88 61 111 111-71 7-132-17-181-68-164 116-446 91-542-56z"/><path fill="#dfffff" opacity=".55" d="M250 140c128-50 300-40 417 52-122-42-267-43-417-3-52 14-75-22 0-49z"/><path fill="#88f7ff" opacity=".62" d="M375 106c38-80 147-101 265-90-57 40-128 78-215 115zM380 302c58 74 160 80 280 56-85-17-159-42-234-86z"/><circle cx="206" cy="191" r="44" fill="url(#e)"/><circle cx="196" cy="182" r="17" fill="#020714"/><circle cx="188" cy="174" r="6" fill="#fff"/><g opacity=".35" stroke="#efffff" stroke-width="7" stroke-linecap="round"><path d="M306 134c72 48 71 96-4 148"/><path d="M370 120c66 62 66 118-2 177"/><path d="M438 119c55 60 56 116 1 174"/><path d="M510 135c38 40 39 88 1 129"/></g></g></svg>
