<svg xmlns="http://www.w3.org/2000/svg" viewBox="0 0 820 420"><defs><linearGradient id="g" x1="0" x2="1"><stop stop-color="#ffd6ff"/><stop offset=".3" stop-color="#8ffcff"/><stop offset=".65" stop-color="#b783ff"/><stop offset="1" stop-color="#ff89cb"/></linearGradient></defs><g fill="none" stroke-linecap="round"><path d="M132 229c96-118 289-126 412-45 72 47 76 112 22 157-90 75-265 44-356-39" stroke="url(#g)" stroke-width="58"/><path d="M195 177c56 54 58 126 5 182M270 150c45 73 40 154-20 229M350 146c31 74 21 150-39 226M430 161c14 65-3 124-54 176" stroke="#efffff" stroke-width="8" opacity=".42"/><path d="M566 184c87-50 167-56 237-18M576 216c96-22 169-6 220 49M142 223C88 157 52 101 35 55M159 205C106 138 89 78 107 25" stroke="#e6ffff" stroke-width="10" opacity=".7"/><circle cx="128" cy="223" r="22" fill="#071018" stroke="#fff" stroke-width="8"/><path d="M247 322c-18 48-47 79-86 93M321 342c-9 39-31 67-65 83M397 343c-5 33-24 58-57 76M473 321c0 31-15 55-44 72" stroke="#dfffff" stroke-width="12" opacity=".75"/></g></svg>
