{"asset":{"version":"2.0","generator":"CHUCO base model"},"scene":0,"scenes":[{"nodes":[0]}],"nodes":[{"name":"base-cleaner","mesh":0}],"meshes":[{"primitives":[{"attributes":{"POSITION":0,"NORMAL":1},"indices":2,"material":0}]}],"materials":[{"name":"mat","pbrMetallicRoughness":{"baseColorFactor":[0.75,0.55,1,0.9],"metallicFactor":0.03,"roughnessFactor":0.35},"doubleSided":true}],"buffers":[{"uri":"data:application/octet-stream;base64,","byteLength":312}],"bufferViews":[{"buffer":0,"byteOffset":0,"byteLength":144,"target":34962},{"buffer":0,"byteOffset":144,"byteLength":144,"target":34962},{"buffer":0,"byteOffset":288,"byteLength":24,"target":34963}],"accessors":[{"bufferView":0,"componentType":5126,"count":12,"type":"VEC3","min":[-1.7,-0.55,0],"max":[1.0,0.9,0]},{"bufferView":1,"componentType":5126,"count":12,"type":"VEC3"},{"bufferView":2,"componentType":5123,"count":12,"type":"SCALAR"}]}